<?xml version="1.0" encoding="UTF-8" standalone="no"?>
<!-- Created with Inkscape (http://www.inkscape.org/) -->

<svg
   xmlns:dc="http://purl.org/dc/elements/1.1/"
   xmlns:cc="http://creativecommons.org/ns#"
   xmlns:rdf="http://www.w3.org/1999/02/22-rdf-syntax-ns#"
   xmlns:svg="http://www.w3.org/2000/svg"
   xmlns="http://www.w3.org/2000/svg"
   xmlns:sodipodi="http://sodipodi.sourceforge.net/DTD/sodipodi-0.dtd"
   xmlns:inkscape="http://www.inkscape.org/namespaces/inkscape"
   width="253.405"
   height="160.337"
   id="svg2441"
   sodipodi:version="0.32"
   inkscape:version="0.92.1 r15371"
   sodipodi:docname="power-set.svg"
   inkscape:output_extension="org.inkscape.output.svg.inkscape"
   version="1.1">
  <sodipodi:namedview
     id="base"
     pagecolor="#ffffff"
     bordercolor="#666666"
     borderopacity="1.0"
     gridtolerance="10000"
     guidetolerance="10"
     objecttolerance="10"
     inkscape:pageopacity="0.0"
     inkscape:pageshadow="2"
     inkscape:zoom="0.5"
     inkscape:cx="-4077.168"
     inkscape:cy="4119.3685"
     inkscape:document-units="px"
     inkscape:current-layer="layer1"
     showgrid="false"
     showborder="true"
     inkscape:window-width="1920"
     inkscape:window-height="1005"
     inkscape:window-x="1911"
     inkscape:window-y="-9"
     showguides="true"
     inkscape:guide-bbox="true"
     inkscape:window-maximized="1" />
  <defs
     id="defs2443">
    <marker
       style="overflow:visible"
       id="Arrow1Lend"
       refX="0"
       refY="0"
       orient="auto"
       inkscape:stockid="Arrow1Lend">
      <path
         inkscape:connector-curvature="0"
         transform="matrix(-0.8,0,0,-0.8,-10,0)"
         style="fill-rule:evenodd;stroke:#000000;stroke-width:1pt;marker-start:none"
         d="M 0,0 5,-5 -12.5,0 5,5 Z"
         id="path7696" />
    </marker>
    <marker
       style="overflow:visible"
       id="Arrow1Lstart"
       refX="0"
       refY="0"
       orient="auto"
       inkscape:stockid="Arrow1Lstart">
      <path
         inkscape:connector-curvature="0"
         transform="matrix(0.8,0,0,0.8,10,0)"
         style="fill-rule:evenodd;stroke:#000000;stroke-width:1pt;marker-start:none"
         d="M 0,0 5,-5 -12.5,0 5,5 Z"
         id="path7693" />
    </marker>
    <inkscape:perspective
       id="perspective2449"
       inkscape:persp3d-origin="372.047 : 350.787 : 1"
       inkscape:vp_z="744.094 : 526.181 : 1"
       inkscape:vp_y="0 : 1000 : 0"
       inkscape:vp_x="0 : 526.181 : 1"
       sodipodi:type="inkscape:persp3d" />
    <inkscape:perspective
       sodipodi:type="inkscape:persp3d"
       inkscape:vp_x="0 : 0.5 : 1"
       inkscape:vp_y="0 : 1000 : 0"
       inkscape:vp_z="1 : 0.5 : 1"
       inkscape:persp3d-origin="0.5 : 0.333333 : 1"
       id="perspective8334" />
    <marker
       style="overflow:visible"
       id="Arrow1Lstart-2"
       refX="0"
       refY="0"
       orient="auto"
       inkscape:stockid="Arrow1Lstart">
      <path
         inkscape:connector-curvature="0"
         transform="matrix(0.8,0,0,0.8,10,0)"
         style="fill-rule:evenodd;stroke:#000000;stroke-width:1pt;marker-start:none"
         d="M 0,0 5,-5 -12.5,0 5,5 Z"
         id="path7693-5" />
    </marker>
    <marker
       style="overflow:visible"
       id="Arrow1Lend-0"
       refX="0"
       refY="0"
       orient="auto"
       inkscape:stockid="Arrow1Lend">
      <path
         inkscape:connector-curvature="0"
         transform="matrix(-0.8,0,0,-0.8,-10,0)"
         style="fill-rule:evenodd;stroke:#000000;stroke-width:1pt;marker-start:none"
         d="M 0,0 5,-5 -12.5,0 5,5 Z"
         id="path7696-9" />
    </marker>
    <inkscape:perspective
       sodipodi:type="inkscape:persp3d"
       inkscape:vp_x="0 : 0.5 : 1"
       inkscape:vp_y="0 : 1000 : 0"
       inkscape:vp_z="1 : 0.5 : 1"
       inkscape:persp3d-origin="0.5 : 0.333333 : 1"
       id="perspective8368" />
    <marker
       style="overflow:visible"
       id="Arrow1Lstart-7"
       refX="0"
       refY="0"
       orient="auto"
       inkscape:stockid="Arrow1Lstart">
      <path
         inkscape:connector-curvature="0"
         transform="matrix(0.8,0,0,0.8,10,0)"
         style="fill-rule:evenodd;stroke:#000000;stroke-width:1pt;marker-start:none"
         d="M 0,0 5,-5 -12.5,0 5,5 Z"
         id="path7693-8" />
    </marker>
    <marker
       style="overflow:visible"
       id="Arrow1Lend-3"
       refX="0"
       refY="0"
       orient="auto"
       inkscape:stockid="Arrow1Lend">
      <path
         inkscape:connector-curvature="0"
         transform="matrix(-0.8,0,0,-0.8,-10,0)"
         style="fill-rule:evenodd;stroke:#000000;stroke-width:1pt;marker-start:none"
         d="M 0,0 5,-5 -12.5,0 5,5 Z"
         id="path7696-5" />
    </marker>
    <inkscape:perspective
       sodipodi:type="inkscape:persp3d"
       inkscape:vp_x="0 : 0.5 : 1"
       inkscape:vp_y="0 : 1000 : 0"
       inkscape:vp_z="1 : 0.5 : 1"
       inkscape:persp3d-origin="0.5 : 0.333333 : 1"
       id="perspective8368-2" />
    <marker
       style="overflow:visible"
       id="Arrow1Lstart-0"
       refX="0"
       refY="0"
       orient="auto"
       inkscape:stockid="Arrow1Lstart">
      <path
         inkscape:connector-curvature="0"
         transform="matrix(0.8,0,0,0.8,10,0)"
         style="fill-rule:evenodd;stroke:#000000;stroke-width:1pt;marker-start:none"
         d="M 0,0 5,-5 -12.5,0 5,5 Z"
         id="path7693-1" />
    </marker>
    <marker
       style="overflow:visible"
       id="Arrow1Lend-6"
       refX="0"
       refY="0"
       orient="auto"
       inkscape:stockid="Arrow1Lend">
      <path
         inkscape:connector-curvature="0"
         transform="matrix(-0.8,0,0,-0.8,-10,0)"
         style="fill-rule:evenodd;stroke:#000000;stroke-width:1pt;marker-start:none"
         d="M 0,0 5,-5 -12.5,0 5,5 Z"
         id="path7696-4" />
    </marker>
    <inkscape:perspective
       sodipodi:type="inkscape:persp3d"
       inkscape:vp_x="0 : 0.5 : 1"
       inkscape:vp_y="0 : 1000 : 0"
       inkscape:vp_z="1 : 0.5 : 1"
       inkscape:persp3d-origin="0.5 : 0.333333 : 1"
       id="perspective8368-6" />
    <marker
       style="overflow:visible"
       id="Arrow1Lstart-1"
       refX="0"
       refY="0"
       orient="auto"
       inkscape:stockid="Arrow1Lstart">
      <path
         inkscape:connector-curvature="0"
         transform="matrix(0.8,0,0,0.8,10,0)"
         style="fill-rule:evenodd;stroke:#000000;stroke-width:1pt;marker-start:none"
         d="M 0,0 5,-5 -12.5,0 5,5 Z"
         id="path7693-89" />
    </marker>
    <marker
       style="overflow:visible"
       id="Arrow1Lend-8"
       refX="0"
       refY="0"
       orient="auto"
       inkscape:stockid="Arrow1Lend">
      <path
         inkscape:connector-curvature="0"
         transform="matrix(-0.8,0,0,-0.8,-10,0)"
         style="fill-rule:evenodd;stroke:#000000;stroke-width:1pt;marker-start:none"
         d="M 0,0 5,-5 -12.5,0 5,5 Z"
         id="path7696-41" />
    </marker>
    <inkscape:perspective
       sodipodi:type="inkscape:persp3d"
       inkscape:vp_x="0 : 0.5 : 1"
       inkscape:vp_y="0 : 1000 : 0"
       inkscape:vp_z="1 : 0.5 : 1"
       inkscape:persp3d-origin="0.5 : 0.333333 : 1"
       id="perspective8368-3" />
    <marker
       style="overflow:visible"
       id="Arrow1Lstart-9"
       refX="0"
       refY="0"
       orient="auto"
       inkscape:stockid="Arrow1Lstart">
      <path
         inkscape:connector-curvature="0"
         transform="matrix(0.8,0,0,0.8,10,0)"
         style="fill-rule:evenodd;stroke:#000000;stroke-width:1pt;marker-start:none"
         d="M 0,0 5,-5 -12.5,0 5,5 Z"
         id="path7693-88" />
    </marker>
    <marker
       style="overflow:visible"
       id="Arrow1Lend-08"
       refX="0"
       refY="0"
       orient="auto"
       inkscape:stockid="Arrow1Lend">
      <path
         inkscape:connector-curvature="0"
         transform="matrix(-0.8,0,0,-0.8,-10,0)"
         style="fill-rule:evenodd;stroke:#000000;stroke-width:1pt;marker-start:none"
         d="M 0,0 5,-5 -12.5,0 5,5 Z"
         id="path7696-7" />
    </marker>
    <inkscape:perspective
       sodipodi:type="inkscape:persp3d"
       inkscape:vp_x="0 : 0.5 : 1"
       inkscape:vp_y="0 : 1000 : 0"
       inkscape:vp_z="1 : 0.5 : 1"
       inkscape:persp3d-origin="0.5 : 0.333333 : 1"
       id="perspective9480" />
    <inkscape:perspective
       sodipodi:type="inkscape:persp3d"
       inkscape:vp_x="0 : 0.5 : 1"
       inkscape:vp_y="0 : 1000 : 0"
       inkscape:vp_z="1 : 0.5 : 1"
       inkscape:persp3d-origin="0.5 : 0.333333 : 1"
       id="perspective9613" />
    <inkscape:perspective
       sodipodi:type="inkscape:persp3d"
       inkscape:vp_x="0 : 0.5 : 1"
       inkscape:vp_y="0 : 1000 : 0"
       inkscape:vp_z="1 : 0.5 : 1"
       inkscape:persp3d-origin="0.5 : 0.333333 : 1"
       id="perspective9704" />
    <inkscape:perspective
       sodipodi:type="inkscape:persp3d"
       inkscape:vp_x="0 : 0.5 : 1"
       inkscape:vp_y="0 : 1000 : 0"
       inkscape:vp_z="1 : 0.5 : 1"
       inkscape:persp3d-origin="0.5 : 0.333333 : 1"
       id="perspective9729" />
  </defs>
  <metadata
     id="metadata2446">
    <rdf:RDF>
      <cc:Work
         rdf:about="">
        <dc:format>image/svg+xml</dc:format>
        <dc:type
           rdf:resource="http://purl.org/dc/dcmitype/StillImage" />
        <dc:title></dc:title>
      </cc:Work>
    </rdf:RDF>
  </metadata>
  <g
     transform="translate(2764.01,2770.81)"
     id="layer1"
     inkscape:groupmode="layer"
     inkscape:label="Layer 1">
    <rect
       ry="32.4447"
       y="-2731.78"
       x="-2763.82"
       height="121.121"
       width="253.03"
       id="rect4186"
       style="color:#000000;display:inline;overflow:visible;visibility:visible;opacity:0.2;fill:#fce94f;fill-opacity:1;fill-rule:nonzero;stroke:#3465a4;stroke-width:0.375002px;stroke-linecap:butt;stroke-linejoin:miter;stroke-miterlimit:4;stroke-dasharray:none;stroke-dashoffset:0;stroke-opacity:1;marker:none;enable-background:accumulate" />
    <g
       transform="matrix(0.827277,0,0,1.0117,-1033,325.949)"
       id="g4744">
      <path
         inkscape:connector-curvature="0"
         style="display:inline;overflow:visible;visibility:visible;fill:#fdca01;fill-opacity:1;fill-rule:nonzero;stroke:none;stroke-width:17.620001;stroke-linecap:butt;stroke-linejoin:miter;stroke-miterlimit:4;stroke-dasharray:none;stroke-dashoffset:0;stroke-opacity:1;marker:none;marker-start:none;marker-mid:none;marker-end:none;enable-background:accumulate"
         id="path3654"
         d="m -2047.13,-3013.14 c -0.15,-0.11 -0.34,-0.18 -0.53,-0.25 -0.24,-0.1 -0.48,-0.14 -0.72,-0.2 -0.24,-0.1 -0.49,-0.11 -0.75,-0.12 -0.25,0 -0.5,0.1 -0.75,0.1 -0.35,0 -0.7,0.11 -1.05,0.17 -0.37,0.1 -0.74,0.16 -1.11,0.25 -0.37,0.1 -0.73,0.22 -1.08,0.34 -0.36,0.12 -0.71,0.25 -1.06,0.4 -0.33,0.13 -0.64,0.3 -0.96,0.46 -0.3,0.17 -0.58,0.37 -0.85,0.57 -0.28,0.2 -0.55,0.41 -0.81,0.64 -1.52,1.3 3.87,-3 1.94,-1.54 -0.3,0.23 -0.54,0.49 -0.78,0.75 -0.25,0.26 -0.48,0.53 -0.72,0.8 -0.23,0.28 -0.44,0.57 -0.65,0.85 -0.21,0.3 -0.38,0.61 -0.56,0.91 -0.16,0.29 -0.33,0.59 -0.49,0.88 -0.15,0.28 -0.29,0.57 -0.42,0.86 -0.13,0.29 -0.26,0.58 -0.37,0.87 -0.11,0.29 -0.21,0.57 -0.31,0.86 -0.1,0.29 -0.17,0.59 -0.24,0.88 0,0.31 -0.1,0.62 -0.13,0.94 0,0.31 0,0.62 -0.1,0.93 0,0.32 0,0.64 0,0.95 0,0.32 0,0.63 0.1,0.94 0,0.31 0.1,0.63 0.1,0.94 0,0.34 0.1,0.67 0.14,1 0,0.34 0.1,0.67 0.14,1 0.1,0.33 0.1,0.67 0.15,1 0,0.33 0.1,0.66 0.14,0.99 0,0.33 0.1,0.65 0.14,0.98 0,0.33 0.1,0.67 0.15,1 0,0.35 0.1,0.7 0.13,1.05 0.1,0.38 0.1,0.75 0.13,1.13 0,0.39 0.1,0.78 0.12,1.18 0,0.41 0.1,0.83 0.1,1.25 0,0.42 0,0.84 0,1.26 0,0.44 0,0.88 0,1.32 0,0.46 0,0.92 -0.1,1.39 0,0.45 -0.1,0.9 -0.14,1.36 -0.1,0.43 -0.11,0.85 -0.18,1.28 -0.1,0.42 -0.15,0.84 -0.24,1.25 -0.1,0.41 -0.19,0.82 -0.3,1.23 -0.11,0.4 -0.23,0.79 -0.36,1.19 -0.12,0.39 -0.27,0.77 -0.42,1.15 -0.14,0.38 -0.3,0.76 -0.47,1.13 -0.16,0.37 -0.34,0.74 -0.52,1.1 -0.17,0.36 -0.36,0.72 -0.55,1.08 -0.19,0.34 -0.39,0.68 -0.59,1.02 -0.2,0.31 -0.39,0.61 -0.59,0.92 -0.19,0.3 -0.39,0.6 -0.6,0.89 -0.19,0.29 -0.42,0.57 -0.65,0.85 -0.22,0.26 -0.45,0.51 -0.71,0.76 -0.23,0.22 -0.45,0.45 -0.7,0.67 -0.23,0.22 -0.46,0.43 -0.69,0.65 -0.24,0.2 -0.46,0.4 -0.7,0.6 -1.47,0.88 -2.5,2.1 -3.94,2.97 -0.29,0.17 -0.58,0.31 -0.88,0.46 -0.27,0.15 -0.54,0.28 -0.81,0.42 -0.24,0.14 -0.5,0.26 -0.75,0.38 -0.24,0.12 -0.47,0.25 -0.72,0.34 -0.26,0.1 -0.53,0.17 -0.79,0.26 -0.23,0.1 -0.46,0.14 -0.69,0.22 -0.2,0.1 -0.4,0.13 -0.6,0.2 -0.19,0.1 -0.38,0.13 -0.58,0.18 -0.17,0 -0.34,0.11 -0.52,0.14 -0.15,0 -0.31,0.1 -0.46,0.12 -0.14,0 -0.29,0.1 -0.44,0.1 -0.17,0 -0.33,0 -0.5,0 -0.12,0 -0.23,0 -0.34,0 -0.1,0 -0.2,0 -0.29,0 -0.1,0 -0.17,0 -0.26,0 -0.11,0 -0.21,0 0,0.1 l 1.6,-4.11 c 0.16,0 0.21,0 0.34,0 0.1,0 0.17,0 0.26,0 0.1,0 0.19,0 0.28,0 0.1,0 0.2,0 0.3,0 0.1,0 0.13,-0.1 0.2,-0.1 0.11,0 0.23,-0.1 0.35,-0.11 0.14,0 0.28,-0.1 0.41,-0.12 0.14,-0.1 0.3,-0.11 0.45,-0.16 0.16,-0.1 0.33,-0.12 0.5,-0.18 0.2,-0.1 0.4,-0.13 0.6,-0.2 0.21,-0.1 0.41,-0.15 0.61,-0.23 0.19,-0.1 0.37,-0.19 0.55,-0.3 0.2,-0.13 0.43,-0.23 0.64,-0.34 0.24,-0.13 0.47,-0.26 0.7,-0.38 0.25,-0.14 0.5,-0.28 0.74,-0.42 0.23,-0.15 0.46,-0.31 0.67,-0.48 1.07,-0.82 2.79,-2.12 -2.05,1.59 0.24,-0.18 0.48,-0.36 0.71,-0.55 0.23,-0.19 0.48,-0.38 0.7,-0.58 0.24,-0.21 0.49,-0.41 0.72,-0.63 0.24,-0.23 0.49,-0.44 0.73,-0.66 0.24,-0.22 0.47,-0.45 0.69,-0.68 0.22,-0.26 0.44,-0.51 0.63,-0.78 0.2,-0.3 0.41,-0.59 0.6,-0.89 0.21,-0.31 0.42,-0.62 0.62,-0.93 0.21,-0.34 0.41,-0.67 0.59,-1 0.18,-0.35 0.36,-0.7 0.54,-1.05 0.16,-0.35 0.34,-0.7 0.5,-1.06 0.16,-0.36 0.31,-0.72 0.45,-1.08 0.14,-0.37 0.27,-0.74 0.39,-1.11 0.13,-0.38 0.24,-0.76 0.34,-1.15 0.1,-0.39 0.2,-0.78 0.28,-1.17 0.1,-0.41 0.16,-0.82 0.22,-1.24 0.1,-0.43 0.13,-0.86 0.17,-1.29 0.1,-0.44 0.1,-0.88 0.11,-1.31 0,-0.42 0,-0.84 0,-1.26 0,-0.41 0,-0.82 0,-1.22 0,-0.4 0,-0.8 0,-1.19 0,-0.38 -0.1,-0.76 -0.1,-1.15 0,-0.36 -0.1,-0.73 -0.12,-1.09 0,-0.35 -0.1,-0.7 -0.14,-1.04 0,-0.33 -0.1,-0.66 -0.13,-0.99 -0.1,-0.33 -0.1,-0.65 -0.15,-0.98 0,-0.33 -0.1,-0.66 -0.14,-0.99 -0.1,-0.33 -0.1,-0.66 -0.14,-0.99 -0.1,-0.34 -0.1,-0.68 -0.15,-1.01 -0.1,-0.34 -0.1,-0.67 -0.14,-1.01 -0.1,-0.33 -0.1,-0.65 -0.14,-0.98 0,-0.34 -0.1,-0.67 -0.1,-1.01 0,-0.34 0,-0.68 0,-1.02 0,-0.34 0,-0.69 0,-1.04 0,-0.34 0,-0.69 0.1,-1.04 0,-0.34 0.1,-0.69 0.16,-1.03 0.1,-0.33 0.15,-0.66 0.26,-0.98 0.1,-0.32 0.2,-0.64 0.33,-0.96 0.12,-0.32 0.25,-0.64 0.4,-0.95 0.14,-0.32 0.29,-0.64 0.47,-0.95 0.17,-0.34 0.35,-0.67 0.53,-1 0.19,-0.34 0.39,-0.67 0.61,-1 0.21,-0.32 0.44,-0.62 0.69,-0.92 0.25,-0.31 0.5,-0.61 0.76,-0.92 1.06,-1.21 2.49,-2.21 3.89,-3.18 0.34,-0.22 0.68,-0.43 1.05,-0.62 0.37,-0.19 0.75,-0.37 1.15,-0.52 0.39,-0.16 0.79,-0.3 1.19,-0.43 0.41,-0.13 0.81,-0.26 1.23,-0.36 0.43,-0.11 0.86,-0.21 1.29,-0.29 0.43,-0.1 0.86,-0.15 1.29,-0.2 0.44,0 0.87,-0.1 1.31,-0.11 0.45,0 0.9,0 1.34,0.13 0.37,0.1 0.74,0.17 1.09,0.28 0.35,0.1 0.69,0.22 1.01,0.36 0.37,0.18 0.72,0.37 1.01,0.62 z" />
      <path
         inkscape:connector-curvature="0"
         style="display:inline;overflow:visible;visibility:visible;fill:#fdca01;fill-opacity:1;fill-rule:nonzero;stroke:none;stroke-width:17.620001;stroke-linecap:butt;stroke-linejoin:miter;stroke-miterlimit:4;stroke-dasharray:none;stroke-dashoffset:0;stroke-opacity:1;marker:none;marker-start:none;marker-mid:none;marker-end:none;enable-background:accumulate"
         id="path3656"
         d="m -2046.01,-2915.11 c -0.16,0.12 -0.34,0.19 -0.53,0.26 -0.24,0.1 -0.48,0.13 -0.72,0.2 -0.24,0.1 -0.49,0.1 -0.75,0.12 -0.26,0 -0.5,-0.1 -0.75,-0.1 -0.35,0 -0.71,-0.1 -1.05,-0.17 -0.38,-0.1 -0.75,-0.15 -1.11,-0.25 -0.37,-0.1 -0.73,-0.21 -1.09,-0.33 -0.35,-0.13 -0.71,-0.26 -1.05,-0.4 -0.34,-0.14 -0.65,-0.31 -0.96,-0.47 -0.31,-0.17 -0.58,-0.36 -0.86,-0.56 -0.28,-0.2 -0.55,-0.42 -0.8,-0.64 -1.53,-1.3 3.87,3 1.94,1.53 -0.3,-0.23 -0.54,-0.49 -0.79,-0.75 -0.24,-0.26 -0.48,-0.53 -0.71,-0.8 -0.24,-0.27 -0.44,-0.56 -0.65,-0.85 -0.21,-0.29 -0.38,-0.6 -0.56,-0.91 -0.17,-0.29 -0.33,-0.58 -0.49,-0.88 -0.15,-0.28 -0.29,-0.57 -0.43,-0.85 -0.12,-0.29 -0.25,-0.58 -0.37,-0.88 -0.11,-0.28 -0.21,-0.57 -0.3,-0.86 -0.1,-0.29 -0.17,-0.58 -0.24,-0.88 -0.1,-0.31 -0.1,-0.62 -0.13,-0.93 0,-0.31 -0.1,-0.63 -0.1,-0.94 0,-0.31 0,-0.63 0,-0.95 0,-0.31 0,-0.62 0.1,-0.93 0,-0.32 0.1,-0.63 0.11,-0.95 0,-0.33 0.1,-0.67 0.13,-1 0,-0.33 0.1,-0.67 0.15,-1 0.1,-0.33 0.1,-0.66 0.14,-0.99 0,-0.34 0.1,-0.67 0.15,-1 0,-0.32 0.1,-0.65 0.14,-0.97 0,-0.34 0.1,-0.67 0.14,-1.01 0.1,-0.35 0.1,-0.7 0.14,-1.05 0,-0.37 0.1,-0.75 0.13,-1.12 0,-0.4 0.1,-0.79 0.12,-1.18 0,-0.42 0.1,-0.84 0.1,-1.26 0,-0.42 0,-0.84 0,-1.26 0,-0.44 0,-0.87 0,-1.31 0,-0.47 0,-0.93 -0.1,-1.39 0,-0.45 -0.1,-0.91 -0.13,-1.36 0,-0.43 -0.11,-0.86 -0.18,-1.29 -0.1,-0.42 -0.15,-0.83 -0.24,-1.25 -0.1,-0.41 -0.19,-0.82 -0.3,-1.23 -0.11,-0.39 -0.23,-0.79 -0.36,-1.18 -0.13,-0.39 -0.27,-0.78 -0.42,-1.16 -0.15,-0.38 -0.3,-0.75 -0.48,-1.13 -0.16,-0.37 -0.33,-0.73 -0.51,-1.1 -0.18,-0.36 -0.36,-0.72 -0.56,-1.08 -0.18,-0.34 -0.38,-0.68 -0.59,-1.01 -0.19,-0.31 -0.38,-0.62 -0.58,-0.92 -0.2,-0.3 -0.39,-0.6 -0.6,-0.89 -0.2,-0.3 -0.42,-0.58 -0.65,-0.86 -0.23,-0.25 -0.46,-0.51 -0.71,-0.75 -0.23,-0.23 -0.46,-0.46 -0.7,-0.68 -0.23,-0.21 -0.46,-0.43 -0.7,-0.64 -0.23,-0.2 -0.46,-0.41 -0.69,-0.61 -1.48,-0.88 -2.5,-2.09 -3.94,-2.97 -0.29,-0.16 -0.59,-0.31 -0.88,-0.46 -0.27,-0.14 -0.54,-0.28 -0.81,-0.42 -0.25,-0.13 -0.5,-0.25 -0.75,-0.38 -0.24,-0.12 -0.47,-0.24 -0.73,-0.33 -0.25,-0.1 -0.52,-0.18 -0.78,-0.26 -0.24,-0.1 -0.47,-0.15 -0.69,-0.22 -0.21,-0.1 -0.41,-0.14 -0.61,-0.21 -0.18,-0.1 -0.37,-0.12 -0.57,-0.17 -0.17,0 -0.34,-0.12 -0.52,-0.15 -0.16,0 -0.31,-0.1 -0.46,-0.11 -0.15,-0.1 -0.29,-0.1 -0.44,-0.1 -0.17,0 -0.34,0 -0.5,0 -0.12,0 -0.23,0 -0.35,0 -0.1,0 -0.19,0 -0.28,0 -0.1,0 -0.18,0 -0.26,0 -0.12,0 -0.21,0 0,-0.1 l 1.6,4.12 c 0.16,0 0.21,-0.1 0.34,0 0.1,0 0.17,0 0.26,0 0.1,0 0.19,0 0.28,0 0.1,0 0.2,0 0.29,0 0.1,0 0.13,0.1 0.21,0.1 0.11,0.1 0.23,0.1 0.35,0.11 0.13,0 0.27,0.1 0.41,0.13 0.14,0.1 0.29,0.1 0.44,0.15 0.17,0.1 0.34,0.13 0.51,0.18 0.2,0.1 0.4,0.14 0.6,0.21 0.2,0.1 0.41,0.14 0.61,0.23 0.19,0.1 0.37,0.19 0.55,0.29 0.2,0.13 0.43,0.23 0.64,0.35 0.23,0.12 0.46,0.25 0.7,0.38 0.25,0.13 0.5,0.27 0.74,0.42 0.23,0.15 0.46,0.31 0.67,0.48 1.07,0.82 2.78,2.12 -2.06,-1.59 0.24,0.18 0.49,0.35 0.71,0.54 0.24,0.2 0.49,0.38 0.71,0.59 0.23,0.21 0.49,0.41 0.71,0.63 0.24,0.22 0.5,0.43 0.73,0.66 0.25,0.21 0.48,0.44 0.7,0.68 0.21,0.25 0.44,0.51 0.62,0.78 0.2,0.29 0.41,0.58 0.61,0.88 0.21,0.31 0.42,0.62 0.62,0.94 0.2,0.33 0.4,0.66 0.59,1 0.18,0.34 0.36,0.69 0.54,1.04 0.16,0.36 0.34,0.71 0.5,1.07 0.16,0.35 0.31,0.71 0.45,1.08 0.14,0.36 0.27,0.73 0.39,1.1 0.13,0.38 0.24,0.77 0.34,1.15 0.1,0.39 0.19,0.78 0.28,1.18 0.1,0.41 0.16,0.82 0.22,1.23 0.1,0.43 0.12,0.87 0.17,1.3 0,0.44 0.1,0.87 0.11,1.31 0,0.42 0,0.84 0,1.26 0,0.4 0,0.81 0,1.22 0,0.39 0,0.79 0,1.19 0,0.38 -0.1,0.76 -0.11,1.14 0,0.37 -0.1,0.73 -0.12,1.1 0,0.35 -0.1,0.69 -0.14,1.04 0,0.33 -0.1,0.65 -0.13,0.98 0,0.33 -0.1,0.66 -0.14,0.99 -0.1,0.33 -0.1,0.66 -0.14,0.99 -0.1,0.33 -0.1,0.66 -0.14,0.99 -0.1,0.33 -0.11,0.67 -0.16,1.01 0,0.33 -0.1,0.67 -0.14,1 0,0.33 -0.1,0.66 -0.13,0.99 0,0.33 -0.1,0.67 -0.1,1 0,0.34 0,0.68 -0.1,1.02 0,0.35 0,0.69 0,1.04 0,0.35 0,0.7 0.1,1.04 0,0.35 0.1,0.69 0.16,1.03 0.1,0.33 0.14,0.66 0.25,0.98 0.11,0.32 0.21,0.65 0.34,0.96 0.12,0.32 0.24,0.64 0.39,0.96 0.15,0.32 0.3,0.64 0.47,0.95 0.18,0.33 0.36,0.66 0.54,0.99 0.19,0.34 0.39,0.68 0.61,1 0.21,0.32 0.44,0.63 0.68,0.93 0.25,0.3 0.51,0.61 0.76,0.91 1.06,1.21 2.5,2.22 3.9,3.19 0.34,0.21 0.68,0.43 1.04,0.62 0.38,0.19 0.76,0.37 1.16,0.52 0.39,0.16 0.78,0.3 1.19,0.43 0.4,0.12 0.81,0.25 1.23,0.36 0.42,0.1 0.85,0.2 1.29,0.28 0.43,0.1 0.85,0.15 1.29,0.2 0.43,0.1 0.87,0.1 1.3,0.11 0.46,0 0.91,0 1.35,-0.12 0.37,-0.1 0.73,-0.17 1.09,-0.28 0.34,-0.11 0.69,-0.22 1.01,-0.37 0.37,-0.17 0.72,-0.37 1.01,-0.62 z" />
    </g>
    <g
       transform="matrix(0.265847,0,0,0.325113,-2629.53,-2180.9)"
       id="g3770">
      <path
         inkscape:connector-curvature="0"
         d="m 321.642,-1661.31 c 0.49,-0.35 1.063,-0.57 1.658,-0.79 0.737,-0.23 1.485,-0.43 2.233,-0.63 0.761,-0.21 1.539,-0.33 2.341,-0.37 0.792,0 1.558,0.18 2.336,0.29 1.095,0.16 2.187,0.34 3.271,0.54 1.159,0.23 2.312,0.48 3.445,0.78 1.149,0.3 2.266,0.66 3.378,1.03 1.103,0.4 2.212,0.79 3.279,1.25 1.046,0.43 2.016,0.95 3.002,1.45 0.937,0.53 1.795,1.14 2.649,1.75 0.874,0.63 1.712,1.3 2.506,1.99 4.744,4.05 -12.04,-9.33 -6.031,-4.76 0.924,0.7 1.672,1.52 2.435,2.32 0.767,0.82 1.498,1.66 2.228,2.49 0.735,0.86 1.376,1.76 2.025,2.65 0.642,0.92 1.191,1.88 1.741,2.83 0.51,0.91 1.024,1.82 1.516,2.73 0.464,0.89 0.911,1.78 1.331,2.68 0.393,0.9 0.793,1.8 1.149,2.72 0.341,0.88 0.658,1.77 0.955,2.67 0.279,0.9 0.522,1.82 0.734,2.74 0.175,0.96 0.324,1.93 0.423,2.9 0.121,0.97 0.132,1.95 0.167,2.92 0,0.98 0.01,1.97 -0.03,2.96 -0.04,0.97 -0.1,1.94 -0.194,2.91 -0.09,0.98 -0.202,1.96 -0.331,2.94 -0.137,1.04 -0.274,2.07 -0.421,3.11 -0.132,1.04 -0.29,2.07 -0.448,3.11 -0.156,1.03 -0.314,2.06 -0.449,3.1 -0.146,1.03 -0.302,2.06 -0.451,3.09 -0.13,1.01 -0.285,2.02 -0.438,3.03 -0.159,1.05 -0.308,2.09 -0.448,3.14 -0.135,1.09 -0.279,2.18 -0.416,3.27 -0.147,1.16 -0.282,2.33 -0.41,3.49 -0.136,1.22 -0.252,2.45 -0.372,3.67 -0.124,1.3 -0.206,2.6 -0.267,3.9 -0.06,1.31 -0.09,2.62 -0.1,3.92 -0.03,1.37 0,2.74 0.03,4.11 0.03,1.44 0.119,2.87 0.219,4.31 0.109,1.41 0.259,2.82 0.415,4.23 0.174,1.34 0.353,2.68 0.576,4.01 0.206,1.3 0.464,2.59 0.737,3.88 0.264,1.28 0.598,2.56 0.933,3.83 0.337,1.24 0.72,2.46 1.117,3.69 0.392,1.21 0.845,2.41 1.302,3.6 0.46,1.18 0.949,2.35 1.484,3.51 0.503,1.15 1.048,2.28 1.603,3.42 0.545,1.13 1.126,2.25 1.732,3.36 0.571,1.07 1.193,2.12 1.834,3.16 0.598,0.96 1.196,1.92 1.832,2.87 0.597,0.93 1.198,1.86 1.846,2.77 0.622,0.91 1.317,1.79 2.024,2.66 0.709,0.79 1.423,1.59 2.21,2.34 0.732,0.7 1.425,1.42 2.186,2.1 0.722,0.67 1.427,1.35 2.166,2.01 0.731,0.63 1.433,1.27 2.17,1.89 4.576,2.74 7.762,6.51 12.262,9.24 0.885,0.51 1.808,0.97 2.724,1.44 0.838,0.44 1.686,0.87 2.53,1.3 0.757,0.42 1.548,0.79 2.326,1.18 0.739,0.37 1.467,0.76 2.262,1.04 0.793,0.31 1.631,0.54 2.449,0.81 0.719,0.22 1.434,0.45 2.145,0.69 0.626,0.21 1.25,0.42 1.874,0.64 0.576,0.22 1.173,0.39 1.781,0.55 0.546,0.14 1.062,0.34 1.625,0.44 0.489,0.1 0.965,0.23 1.442,0.35 0.446,0.15 0.896,0.24 1.371,0.29 0.511,0.1 1.032,0.1 1.552,0.1 0.359,0 0.715,0.1 1.07,0.1 0.298,0 0.595,0.1 0.893,0.1 0.267,0 0.534,0.1 0.802,0.1 0.355,0.1 0.652,-0.1 -0.09,0.22 l -4.993,-12.81 c -0.48,0.1 -0.643,0.16 -1.054,0.1 -0.266,0 -0.532,0 -0.798,-0.1 -0.296,0 -0.591,-0.1 -0.887,-0.1 -0.304,0 -0.614,-0.1 -0.908,-0.14 -0.206,-0.1 -0.404,-0.23 -0.646,-0.31 -0.328,-0.17 -0.701,-0.25 -1.074,-0.34 -0.43,-0.12 -0.866,-0.23 -1.274,-0.38 -0.453,-0.18 -0.927,-0.33 -1.396,-0.48 -0.508,-0.22 -1.039,-0.4 -1.576,-0.57 -0.619,-0.21 -1.238,-0.42 -1.855,-0.63 -0.643,-0.23 -1.284,-0.46 -1.897,-0.73 -0.607,-0.26 -1.169,-0.58 -1.719,-0.91 -0.619,-0.4 -1.329,-0.71 -1.985,-1.07 -0.738,-0.38 -1.455,-0.79 -2.195,-1.18 -0.775,-0.42 -1.539,-0.86 -2.283,-1.32 -0.731,-0.47 -1.435,-0.96 -2.087,-1.49 -3.328,-2.55 -8.678,-6.59 6.387,4.96 -0.746,-0.56 -1.511,-1.11 -2.209,-1.71 -0.742,-0.59 -1.505,-1.18 -2.198,-1.81 -0.725,-0.67 -1.518,-1.29 -2.226,-1.97 -0.738,-0.69 -1.541,-1.35 -2.27,-2.05 -0.764,-0.67 -1.483,-1.38 -2.15,-2.12 -0.68,-0.79 -1.37,-1.58 -1.955,-2.42 -0.624,-0.92 -1.279,-1.83 -1.892,-2.75 -0.653,-0.97 -1.302,-1.94 -1.929,-2.92 -0.629,-1.03 -1.248,-2.06 -1.824,-3.11 -0.571,-1.08 -1.132,-2.16 -1.673,-3.24 -0.512,-1.11 -1.075,-2.2 -1.559,-3.32 -0.5,-1.11 -0.969,-2.23 -1.401,-3.36 -0.442,-1.14 -0.851,-2.29 -1.229,-3.45 -0.392,-1.18 -0.739,-2.37 -1.06,-3.57 -0.309,-1.21 -0.597,-2.44 -0.853,-3.66 -0.246,-1.28 -0.5,-2.55 -0.684,-3.84 -0.226,-1.34 -0.396,-2.69 -0.542,-4.04 -0.154,-1.35 -0.271,-2.71 -0.331,-4.07 -0.06,-1.31 -0.09,-2.61 -0.117,-3.91 0.01,-1.27 0,-2.54 0.04,-3.81 0.03,-1.23 0.06,-2.46 0.152,-3.69 0.08,-1.19 0.213,-2.38 0.332,-3.56 0.12,-1.15 0.243,-2.29 0.382,-3.43 0.133,-1.07 0.282,-2.15 0.426,-3.23 0.129,-1.02 0.263,-2.04 0.409,-3.06 0.148,-1.02 0.315,-2.05 0.462,-3.07 0.137,-1.02 0.277,-2.05 0.434,-3.07 0.162,-1.03 0.281,-2.06 0.434,-3.09 0.153,-1.05 0.322,-2.09 0.473,-3.14 0.142,-1.05 0.303,-2.09 0.436,-3.13 0.143,-1.02 0.301,-2.04 0.433,-3.07 0.111,-1.03 0.25,-2.07 0.308,-3.11 0.07,-1.06 0.156,-2.12 0.16,-3.18 0.04,-1.08 0.02,-2.16 0.01,-3.24 -0.05,-1.08 -0.1,-2.16 -0.241,-3.24 -0.1,-1.08 -0.247,-2.15 -0.493,-3.21 -0.213,-1.02 -0.462,-2.04 -0.801,-3.04 -0.321,-1 -0.637,-2.01 -1.048,-2.99 -0.376,-1 -0.757,-1.99 -1.226,-2.97 -0.454,-0.99 -0.92,-1.99 -1.464,-2.96 -0.547,-1.03 -1.109,-2.07 -1.666,-3.1 -0.575,-1.05 -1.215,-2.09 -1.892,-3.11 -0.653,-0.99 -1.368,-1.94 -2.136,-2.88 -0.778,-0.95 -1.565,-1.89 -2.357,-2.84 -3.306,-3.77 -7.764,-6.89 -12.116,-9.91 -1.058,-0.67 -2.122,-1.34 -3.26,-1.93 -1.159,-0.59 -2.354,-1.15 -3.601,-1.62 -1.2,-0.5 -2.439,-0.93 -3.69,-1.33 -1.271,-0.39 -2.535,-0.8 -3.838,-1.13 -1.321,-0.33 -2.653,-0.64 -4.006,-0.89 -1.335,-0.23 -2.67,-0.47 -4.023,-0.62 -1.345,-0.16 -2.696,-0.31 -4.059,-0.33 -1.41,0 -2.821,0.1 -4.185,0.38 -1.15,0.24 -2.282,0.53 -3.39,0.88 -1.074,0.32 -2.143,0.67 -3.141,1.13 -1.148,0.54 -2.237,1.15 -3.151,1.92 z"
         id="path3706"
         style="display:inline;overflow:visible;visibility:visible;fill:#fdca01;fill-opacity:1;fill-rule:nonzero;stroke:none;stroke-width:17.620001;stroke-linecap:butt;stroke-linejoin:miter;stroke-miterlimit:4;stroke-dasharray:none;stroke-dashoffset:0;stroke-opacity:1;marker:none;marker-start:none;marker-mid:none;marker-end:none;enable-background:accumulate" />
      <path
         inkscape:connector-curvature="0"
         d="m 318.166,-1356.26 c 0.49,0.36 1.063,0.58 1.658,0.8 0.737,0.22 1.485,0.42 2.233,0.63 0.761,0.2 1.539,0.32 2.341,0.37 0.792,0 1.558,-0.18 2.336,-0.29 1.095,-0.16 2.187,-0.34 3.271,-0.54 1.159,-0.24 2.312,-0.48 3.445,-0.78 1.149,-0.3 2.267,-0.66 3.378,-1.04 1.103,-0.39 2.212,-0.78 3.279,-1.24 1.046,-0.43 2.016,-0.95 3.002,-1.45 0.938,-0.54 1.796,-1.14 2.649,-1.75 0.874,-0.64 1.712,-1.3 2.506,-2 4.744,-4.04 -12.039,9.34 -6.031,4.77 0.924,-0.7 1.672,-1.52 2.435,-2.33 0.767,-0.81 1.498,-1.65 2.228,-2.48 0.735,-0.86 1.376,-1.76 2.026,-2.65 0.641,-0.92 1.19,-1.88 1.74,-2.83 0.51,-0.91 1.024,-1.82 1.516,-2.73 0.464,-0.89 0.911,-1.78 1.331,-2.68 0.393,-0.9 0.793,-1.81 1.149,-2.72 0.341,-0.88 0.658,-1.77 0.955,-2.67 0.279,-0.91 0.522,-1.82 0.734,-2.74 0.175,-0.97 0.324,-1.93 0.423,-2.91 0.121,-0.97 0.132,-1.94 0.167,-2.91 0,-0.99 0.01,-1.97 -0.03,-2.96 -0.04,-0.97 -0.1,-1.94 -0.194,-2.91 -0.09,-0.98 -0.202,-1.96 -0.331,-2.94 -0.137,-1.04 -0.274,-2.08 -0.421,-3.11 -0.132,-1.04 -0.29,-2.08 -0.448,-3.11 -0.156,-1.03 -0.314,-2.07 -0.449,-3.1 -0.146,-1.03 -0.302,-2.06 -0.45,-3.09 -0.131,-1.01 -0.285,-2.02 -0.439,-3.04 -0.159,-1.04 -0.307,-2.09 -0.448,-3.13 -0.135,-1.09 -0.279,-2.18 -0.416,-3.27 -0.147,-1.16 -0.282,-2.33 -0.41,-3.5 -0.136,-1.22 -0.252,-2.44 -0.372,-3.66 -0.124,-1.3 -0.206,-2.6 -0.266,-3.91 -0.06,-1.3 -0.09,-2.61 -0.101,-3.91 -0.03,-1.37 0,-2.74 0.03,-4.11 0.03,-1.44 0.119,-2.88 0.219,-4.31 0.109,-1.41 0.259,-2.83 0.415,-4.24 0.174,-1.33 0.353,-2.67 0.576,-4 0.206,-1.3 0.464,-2.59 0.737,-3.88 0.264,-1.29 0.598,-2.56 0.933,-3.83 0.337,-1.24 0.72,-2.47 1.117,-3.69 0.392,-1.21 0.845,-2.41 1.302,-3.6 0.46,-1.18 0.949,-2.35 1.484,-3.51 0.503,-1.15 1.048,-2.29 1.604,-3.42 0.545,-1.13 1.125,-2.25 1.731,-3.37 0.571,-1.06 1.194,-2.11 1.834,-3.16 0.598,-0.96 1.197,-1.92 1.832,-2.86 0.597,-0.93 1.198,-1.86 1.846,-2.77 0.622,-0.91 1.317,-1.79 2.025,-2.66 0.709,-0.8 1.422,-1.59 2.209,-2.35 0.732,-0.69 1.425,-1.42 2.186,-2.09 0.722,-0.67 1.427,-1.36 2.166,-2.01 0.732,-0.63 1.433,-1.27 2.17,-1.89 4.576,-2.74 7.762,-6.51 12.262,-9.25 0.886,-0.5 1.808,-0.96 2.724,-1.43 0.838,-0.44 1.686,-0.87 2.53,-1.3 0.757,-0.42 1.548,-0.79 2.326,-1.18 0.739,-0.37 1.467,-0.76 2.262,-1.05 0.793,-0.3 1.631,-0.54 2.449,-0.8 0.719,-0.22 1.434,-0.45 2.145,-0.69 0.626,-0.21 1.25,-0.43 1.874,-0.64 0.576,-0.22 1.174,-0.39 1.781,-0.55 0.546,-0.14 1.062,-0.34 1.625,-0.44 0.489,-0.1 0.965,-0.23 1.442,-0.36 0.446,-0.14 0.896,-0.23 1.371,-0.28 0.512,-0.1 1.033,-0.1 1.552,-0.1 0.359,0 0.715,0 1.07,-0.1 0.298,0 0.595,-0.1 0.893,-0.11 0.267,0 0.534,-0.1 0.802,-0.1 0.355,-0.1 0.653,0.1 -0.09,-0.23 l -4.993,12.81 c -0.48,-0.1 -0.643,-0.15 -1.054,-0.1 -0.266,0 -0.532,0.1 -0.798,0.1 -0.296,0 -0.591,0.1 -0.887,0.1 -0.304,0 -0.614,0.1 -0.908,0.13 -0.206,0.11 -0.404,0.24 -0.646,0.32 -0.328,0.16 -0.7,0.24 -1.074,0.34 -0.43,0.12 -0.866,0.22 -1.274,0.38 -0.453,0.18 -0.927,0.32 -1.396,0.48 -0.508,0.22 -1.039,0.4 -1.576,0.57 -0.619,0.21 -1.238,0.42 -1.855,0.63 -0.643,0.22 -1.283,0.46 -1.897,0.73 -0.607,0.26 -1.169,0.58 -1.719,0.91 -0.619,0.4 -1.329,0.71 -1.984,1.07 -0.739,0.38 -1.456,0.79 -2.196,1.18 -0.774,0.42 -1.538,0.86 -2.283,1.32 -0.731,0.46 -1.435,0.96 -2.087,1.49 -3.328,2.55 -8.678,6.58 6.387,-4.96 -0.746,0.56 -1.511,1.11 -2.209,1.71 -0.742,0.59 -1.504,1.17 -2.198,1.81 -0.725,0.66 -1.518,1.29 -2.225,1.97 -0.739,0.69 -1.542,1.34 -2.271,2.05 -0.764,0.67 -1.483,1.38 -2.15,2.11 -0.68,0.8 -1.37,1.59 -1.954,2.43 -0.625,0.92 -1.279,1.82 -1.893,2.75 -0.652,0.97 -1.302,1.94 -1.929,2.92 -0.628,1.03 -1.248,2.06 -1.824,3.11 -0.571,1.08 -1.132,2.16 -1.673,3.24 -0.512,1.11 -1.075,2.2 -1.559,3.32 -0.499,1.11 -0.969,2.23 -1.401,3.36 -0.442,1.14 -0.85,2.29 -1.229,3.45 -0.391,1.18 -0.739,2.37 -1.06,3.57 -0.308,1.21 -0.597,2.43 -0.853,3.66 -0.245,1.28 -0.5,2.55 -0.684,3.84 -0.226,1.34 -0.396,2.69 -0.542,4.03 -0.153,1.36 -0.27,2.72 -0.331,4.08 -0.06,1.3 -0.09,2.61 -0.117,3.91 0.01,1.27 0,2.54 0.04,3.81 0.03,1.23 0.06,2.46 0.152,3.69 0.08,1.19 0.213,2.38 0.332,3.56 0.12,1.14 0.243,2.28 0.382,3.42 0.133,1.08 0.282,2.16 0.426,3.24 0.129,1.02 0.263,2.04 0.409,3.06 0.148,1.02 0.315,2.04 0.462,3.07 0.137,1.02 0.277,2.04 0.434,3.07 0.162,1.02 0.281,2.06 0.435,3.08 0.152,1.05 0.321,2.1 0.472,3.15 0.143,1.04 0.303,2.08 0.437,3.13 0.142,1.02 0.301,2.04 0.432,3.06 0.111,1.04 0.25,2.08 0.308,3.12 0.07,1.06 0.156,2.12 0.16,3.18 0.04,1.08 0.02,2.16 0.01,3.24 -0.05,1.08 -0.1,2.16 -0.241,3.24 -0.1,1.07 -0.247,2.15 -0.493,3.21 -0.213,1.02 -0.461,2.04 -0.801,3.04 -0.321,1 -0.637,2 -1.048,2.99 -0.376,0.99 -0.757,1.99 -1.226,2.96 -0.454,1 -0.92,2 -1.464,2.97 -0.547,1.03 -1.109,2.06 -1.666,3.1 -0.575,1.05 -1.215,2.09 -1.892,3.11 -0.653,0.98 -1.368,1.94 -2.136,2.88 -0.778,0.95 -1.565,1.89 -2.357,2.83 -3.306,3.78 -7.764,6.9 -12.116,9.92 -1.058,0.67 -2.122,1.34 -3.26,1.93 -1.159,0.59 -2.354,1.15 -3.601,1.62 -1.2,0.49 -2.439,0.92 -3.69,1.33 -1.27,0.39 -2.535,0.8 -3.837,1.12 -1.322,0.34 -2.654,0.65 -4.007,0.89 -1.334,0.24 -2.669,0.47 -4.023,0.63 -1.345,0.16 -2.696,0.31 -4.059,0.33 -1.41,0 -2.821,-0.1 -4.185,-0.38 -1.15,-0.24 -2.282,-0.53 -3.389,-0.88 -1.075,-0.33 -2.144,-0.67 -3.142,-1.13 -1.148,-0.54 -2.237,-1.15 -3.151,-1.93 z"
         id="path3708"
         style="display:inline;overflow:visible;visibility:visible;fill:#fdca01;fill-opacity:1;fill-rule:nonzero;stroke:none;stroke-width:17.620001;stroke-linecap:butt;stroke-linejoin:miter;stroke-miterlimit:4;stroke-dasharray:none;stroke-dashoffset:0;stroke-opacity:1;marker:none;marker-start:none;marker-mid:none;marker-end:none;enable-background:accumulate" />
    </g>
    <text
       id="text7170"
       y="-2709.27"
       x="-2706.37"
       style="color:#000000;font-style:normal;font-variant:normal;font-weight:normal;font-stretch:normal;font-size:19.338955px;line-height:125%;font-family:'Comic Sans MS';-inkscape-font-specification:'Comic Sans MS';text-indent:0;text-align:start;text-decoration:none;text-decoration-line:none;letter-spacing:normal;word-spacing:normal;text-transform:none;writing-mode:lr-tb;direction:ltr;text-anchor:start;display:inline;overflow:visible;visibility:visible;fill:#0169c9;fill-opacity:1;fill-rule:nonzero;stroke:none;stroke-width:0.77001;marker:none;enable-background:accumulate"
       xml:space="preserve"><tspan
         style="stroke-width:0.77001"
         y="-2709.27"
         x="-2706.37"
         id="tspan7172"
         sodipodi:role="line">{},</tspan></text>
    <text
       id="text2160"
       y="-2747.61"
       x="-2679.74"
       style="color:#000000;font-style:normal;font-variant:normal;font-weight:normal;font-stretch:normal;font-size:29.237064px;line-height:121.000004%;font-family:'Comic Sans MS';-inkscape-font-specification:'Comic Sans MS';text-indent:0;text-align:start;text-decoration:none;text-decoration-line:none;letter-spacing:normal;word-spacing:normal;text-transform:none;writing-mode:lr-tb;direction:ltr;text-anchor:start;display:inline;overflow:visible;visibility:visible;fill:#3465a4;fill-opacity:1;fill-rule:nonzero;stroke:none;stroke-width:0.456799px;marker:none;enable-background:accumulate"
       xml:space="preserve"><tspan
         style="stroke-width:0.456799px"
         y="-2747.61"
         x="-2679.74"
         id="tspan2162"
         sodipodi:role="line">{a,b,c}</tspan></text>
    <text
       xml:space="preserve"
       style="color:#000000;font-style:normal;font-variant:normal;font-weight:normal;font-stretch:normal;font-size:19.338955px;line-height:125%;font-family:'Comic Sans MS';-inkscape-font-specification:'Comic Sans MS';text-indent:0;text-align:start;text-decoration:none;text-decoration-line:none;letter-spacing:normal;word-spacing:normal;text-transform:none;writing-mode:lr-tb;direction:ltr;text-anchor:start;display:inline;overflow:visible;visibility:visible;fill:#0169c9;fill-opacity:1;fill-rule:nonzero;stroke:none;stroke-width:0.77001;marker:none;enable-background:accumulate"
       x="-2706.37"
       y="-2681.56"
       id="text1279"><tspan
         sodipodi:role="line"
         id="tspan1277"
         x="-2706.37"
         y="-2681.56"
         style="stroke-width:0.77001">{a}, {b}, {c},</tspan></text>
    <text
       id="text1283"
       y="-2653.85"
       x="-2706.37"
       style="color:#000000;font-style:normal;font-variant:normal;font-weight:normal;font-stretch:normal;font-size:19.338955px;line-height:125%;font-family:'Comic Sans MS';-inkscape-font-specification:'Comic Sans MS';text-indent:0;text-align:start;text-decoration:none;text-decoration-line:none;letter-spacing:normal;word-spacing:normal;text-transform:none;writing-mode:lr-tb;direction:ltr;text-anchor:start;display:inline;overflow:visible;visibility:visible;fill:#0169c9;fill-opacity:1;fill-rule:nonzero;stroke:none;stroke-width:0.77001;marker:none;enable-background:accumulate"
       xml:space="preserve"><tspan
         style="stroke-width:0.77001"
         y="-2653.85"
         x="-2706.37"
         id="tspan1281"
         sodipodi:role="line">{a,b}, {a,c}, {b,c},</tspan></text>
    <text
       xml:space="preserve"
       style="color:#000000;font-style:normal;font-variant:normal;font-weight:normal;font-stretch:normal;font-size:19.338955px;line-height:125%;font-family:'Comic Sans MS';-inkscape-font-specification:'Comic Sans MS';text-indent:0;text-align:start;text-decoration:none;text-decoration-line:none;letter-spacing:normal;word-spacing:normal;text-transform:none;writing-mode:lr-tb;direction:ltr;text-anchor:start;display:inline;overflow:visible;visibility:visible;fill:#0169c9;fill-opacity:1;fill-rule:nonzero;stroke:none;stroke-width:0.77001;marker:none;enable-background:accumulate"
       x="-2706.37"
       y="-2626.14"
       id="text1287"><tspan
         sodipodi:role="line"
         id="tspan1285"
         x="-2706.37"
         y="-2626.14"
         style="stroke-width:0.77001">{a,b,c}</tspan></text>
  </g>
</svg>
